<svg width="16" height="17" viewBox="0 0 16 17" fill="none" xmlns="http://www.w3.org/2000/svg">
<path d="M0 0H16V4H0V0Z" fill="#2E3A59"/>
<path d="M8.545 11.098C7.761 11.098 7.11 10.86 6.592 10.384C6.074 9.90795 5.815 9.29662 5.815 8.54995C5.815 7.80329 6.07167 7.19195 6.585 6.71595C7.103 6.23995 7.754 6.00195 8.538 6.00195C9.00467 6.00195 9.427 6.09529 9.805 6.28195V7.52095C9.42234 7.28295 9.00467 7.16395 8.552 7.16395C8.14134 7.16395 7.79834 7.29462 7.523 7.55595C7.24767 7.81729 7.11 8.14862 7.11 8.54995C7.11 8.96062 7.25 9.29429 7.53 9.55095C7.81467 9.80762 8.17167 9.93595 8.601 9.93595C9.11434 9.93595 9.54367 9.80529 9.889 9.54395C10.2343 9.28262 9.889 10.79 9.889 10.79C9.889 10.79 9.03967 11.098 8.545 11.098Z" fill="#2E3A59"/>
<path d="M2 4V10C2 13.3137 4.68629 16 8 16V16C11.3137 16 14 13.3137 14 10V4" stroke="#2E3A59"/>
</svg>
