<svg width="23" height="27" viewBox="0 0 23 27" fill="none" xmlns="http://www.w3.org/2000/svg">
<path d="M21.1 8.18591V16.3716C21.1 21.6459 16.8243 25.9216 11.55 25.9216V25.9216C6.27569 25.9216 2.00001 21.6459 2.00001 16.3716V8.18591" stroke="#2E3A59" stroke-width="2"/>
<rect x="-0.5" y="0.5" width="20.1288" height="7.18636" transform="matrix(-1 0 0 1 21.1 0)" stroke="#2E3A59"/>
<path d="M8.84589 19.4707C8.74041 19.2777 8.74736 19.0454 8.86501 18.8643L10.697 16.0433L5.12693 12.4261C4.84568 12.2434 4.76221 11.8722 4.94062 11.5975C5.11903 11.3228 5.4921 11.248 5.77335 11.4307L11.3434 15.0479L13.1753 12.227C13.2934 12.0451 13.5028 11.9443 13.7216 11.9628C13.9413 11.98 14.1358 12.1148 14.2302 12.3129L17.4664 19.1328C17.555 19.3205 17.5417 19.5373 17.4305 19.7086C17.3194 19.8798 17.1267 19.9801 16.9191 19.9755L9.37261 19.793C9.25698 19.7896 9.14574 19.7542 9.05131 19.6928C8.96707 19.6381 8.89594 19.5617 8.84589 19.4707" fill="#2E3A59"/>
</svg>
