<svg width="16" height="17" viewBox="0 0 16 17" fill="none" xmlns="http://www.w3.org/2000/svg">
<path d="M0 0H16V4H0V0Z" fill="#2E3A59"/>
<path fill-rule="evenodd" clip-rule="evenodd" d="M7.96802 6.00103C7.74689 5.98753 7.52979 6.10791 7.43049 6.32085L5.55218 10.3489C5.42252 10.627 5.54282 10.9576 5.82089 11.0872C6.09897 11.2169 6.42951 11.0966 6.55919 10.8185L6.83065 10.2363H9.10538L9.37683 10.8185C9.5065 11.0966 9.83705 11.2169 10.1151 11.0872C10.3932 10.9576 10.5135 10.627 10.3838 10.3489L8.50554 6.32085C8.40624 6.10791 8.18916 5.98753 7.96802 6.00103ZM8.58726 9.12521H7.34877L7.96802 7.79722L8.58726 9.12521Z" fill="#2E3A59"/>
<path d="M2 4V10C2 13.3137 4.68629 16 8 16V16C11.3137 16 14 13.3137 14 10V4" stroke="#2E3A59"/>
</svg>
