<svg width="16" height="17" viewBox="0 0 16 17" fill="none" xmlns="http://www.w3.org/2000/svg">
<path d="M0 0H16V4H0V0Z" fill="#2E3A59"/>
<path d="M8.48899 11H6.96899C6.41671 11 5.96899 10.5523 5.96899 9.99998V7.09998C5.96899 6.54769 6.41671 6.09998 6.96899 6.09998H8.35599C8.81799 6.09998 9.18666 6.20964 9.46199 6.42898C9.74199 6.64364 9.88199 6.94698 9.88199 7.33898C9.88199 7.56298 9.82599 7.75898 9.71399 7.92698C9.60666 8.09498 9.47133 8.21631 9.30799 8.29098C9.55066 8.34698 9.76533 8.48931 9.95199 8.71798C10.1433 8.95131 10.239 9.24298 10.239 9.59298C10.239 10.013 10.078 10.3536 9.75599 10.615C9.44333 10.8716 9.02099 11 8.48899 11ZM7.22899 8.90698V9.94998H8.24399C8.43533 9.94998 8.58466 9.90564 8.69199 9.81698C8.80399 9.72364 8.85999 9.59531 8.85999 9.43198C8.85999 9.26864 8.80399 9.14031 8.69199 9.04698C8.57999 8.95364 8.43066 8.90698 8.24399 8.90698H7.22899ZM7.22899 7.12198V7.97598H8.16699C8.32099 7.97598 8.44233 7.93864 8.53099 7.86398C8.62433 7.78931 8.67099 7.68664 8.67099 7.55598C8.67099 7.42064 8.62433 7.31564 8.53099 7.24098C8.44233 7.16164 8.32099 7.12198 8.16699 7.12198H7.22899Z" fill="#2E3A59"/>
<path d="M2 4V10C2 13.3137 4.68629 16 8 16V16C11.3137 16 14 13.3137 14 10V4" stroke="#2E3A59"/>
</svg>
