<?xml version="1.0" encoding="UTF-8"?>
<!-- Created with Inkscape (http://www.inkscape.org/) -->
<svg width="87.357" height="66.334" version="1.1" viewBox="0 0 23.113 17.551" xmlns="http://www.w3.org/2000/svg" xmlns:cc="http://creativecommons.org/ns#" xmlns:dc="http://purl.org/dc/elements/1.1/" xmlns:rdf="http://www.w3.org/1999/02/22-rdf-syntax-ns#">
 <metadata>
  <rdf:RDF>
   <cc:Work rdf:about="">
    <dc:format>image/svg+xml</dc:format>
    <dc:type rdf:resource="http://purl.org/dc/dcmitype/StillImage"/>
    <dc:title/>
   </cc:Work>
  </rdf:RDF>
 </metadata>
 <g id="main_layer" transform="translate(-21.801 -17.699)">
  <rect id="selection" x="22.568" y="18.466" width="21.579" height="16.017" fill="none" stroke="#a1e9ee" stroke-width="1.5341"/>
  <rect id="online_rect" x="24.064" y="19.967" width="18.542" height="12.987" fill="#030303" fill-rule="evenodd" stroke="#007500" stroke-width="1.5445"/>
  <g id="main_layer_1" fill="#eaff2d">
   <g id="main_layer_2" stroke-width=".14841">
    <path id="phase_a_arrow_down" d="m27.582 31.242-1.3505-1.4985c-0.1238-0.1373-0.1238-0.3622 0-0.4993l0.1127-0.1254c0.1235-0.1372 0.3263-0.1372 0.45 0l1.0306 1.1436 1.0308-1.1436c0.1236-0.1372 0.3265-0.1372 0.4499 0l0.1128 0.1254c0.1239 0.1371 0.1239 0.362 0 0.4993l-1.3507 1.4985c-0.066 0.074-0.1556 0.1065-0.2428 0.101-0.087 0.01-0.1762-0.027-0.2428-0.101z"/>
    <path id="phase_b_arrow_down" d="m33.204 31.296-1.3505-1.4984c-0.1238-0.1374-0.1238-0.3623 0-0.4994l0.1126-0.1253c0.1236-0.1373 0.3264-0.1373 0.4501 0l1.0306 1.1435 1.0308-1.1435c0.1236-0.1373 0.3265-0.1373 0.4499 0l0.1128 0.1253c0.1239 0.1371 0.1239 0.362 0 0.4994l-1.3507 1.4984c-0.066 0.074-0.1556 0.1065-0.2428 0.101-0.087 0.01-0.1762-0.027-0.2428-0.101z"/>
    <path id="phase_c_arrow_down" d="m38.826 31.296-1.3505-1.4984c-0.1238-0.1374-0.1238-0.3623 0-0.4994l0.1126-0.1253c0.1236-0.1373 0.3264-0.1373 0.4501 0l1.0306 1.1435 1.0308-1.1435c0.1236-0.1373 0.3265-0.1373 0.4499 0l0.1128 0.1253c0.1239 0.1371 0.1239 0.362 0 0.4994l-1.3507 1.4984c-0.066 0.074-0.1556 0.1065-0.2428 0.101-0.087 0.01-0.1762-0.027-0.2428-0.101z"/>
    <path id="phase_a_arrow_up" d="m27.582 21.665-1.3505 1.4985c-0.1238 0.1373-0.1238 0.3622 0 0.4994l0.1127 0.1253c0.1235 0.1372 0.3263 0.1372 0.45 0l1.0306-1.1436 1.0308 1.1436c0.1236 0.1372 0.3265 0.1372 0.4499 0l0.1128-0.1253c0.1239-0.1372 0.1239-0.3621 0-0.4994l-1.3507-1.4985c-0.066-0.074-0.1556-0.1065-0.2428-0.101-0.087-0.01-0.1762 0.027-0.2428 0.101z"/>
    <path id="phase_b_arrow_up" d="m33.204 21.852-1.3505 1.4985c-0.1238 0.1373-0.1238 0.3622 0 0.4994l0.1126 0.1253c0.1236 0.1372 0.3264 0.1372 0.4501 0l1.0306-1.1436 1.0308 1.1436c0.1236 0.1372 0.3265 0.1372 0.4499 0l0.1128-0.1253c0.1239-0.1372 0.1239-0.3621 0-0.4994l-1.3507-1.4985c-0.066-0.074-0.1556-0.1065-0.2428-0.101-0.087-0.01-0.1762 0.027-0.2428 0.101z"/>
    <path id="phase_c_arrow_up" d="m38.826 21.719-1.3505 1.4984c-0.1238 0.1373-0.1238 0.3622 0 0.4994l0.1126 0.1253c0.1236 0.1373 0.3264 0.1373 0.4501 0l1.0306-1.1436 1.0308 1.1436c0.1236 0.1373 0.3265 0.1373 0.4499 0l0.1128-0.1253c0.1239-0.1372 0.1239-0.3621 0-0.4994l-1.3507-1.4984c-0.066-0.074-0.1556-0.1066-0.2428-0.1011-0.087-0.01-0.1762 0.027-0.2428 0.1011z"/>
   </g>
   <g id="main_layer_3" font-family="sans-serif" font-size="5.0786px" letter-spacing="0px" stroke-width=".21161px" word-spacing="0px">
    <text id="phase_a" x="26.0889" y="28.3051" style="font-feature-settings:normal;font-variant-caps:normal;font-variant-ligatures:normal;font-variant-numeric:normal;line-height:125%" xml:space="preserve"><tspan x="26.0889" y="28.3051" fill="#eaff2d" font-family="sans-serif" font-size="5.0786px" stroke-width=".21161px" style="font-feature-settings:normal;font-variant-caps:normal;font-variant-ligatures:normal;font-variant-numeric:normal">A</tspan></text>
    <text id="phase_b" x="31.6353" y="28.425" style="font-feature-settings:normal;font-variant-caps:normal;font-variant-ligatures:normal;font-variant-numeric:normal;line-height:125%" xml:space="preserve"><tspan x="31.6353" y="28.425" stroke-width=".21161px">B</tspan></text>
    <text id="phase_c" x="37.2907" y="28.356" style="font-feature-settings:normal;font-variant-caps:normal;font-variant-ligatures:normal;font-variant-numeric:normal;line-height:125%" xml:space="preserve"><tspan x="37.2907" y="28.356" stroke-width=".21161px">C</tspan></text>
   </g>
  </g>
 </g>
</svg>

