<svg width="22" height="22" viewBox="0 0 22 22" fill="none" xmlns="http://www.w3.org/2000/svg">
<rect x="0.5" y="0.5" width="21" height="21" rx="10.5" fill="#E32828" stroke="white"/>
<path d="M12.5093 7.95822C12.3402 7.95333 12.1834 8.03921 12.1004 8.18309L10.8068 10.4236L6.3829 7.86945C6.15952 7.74048 5.87598 7.8129 5.75 8.0311C5.62403 8.2493 5.70308 8.53106 5.92646 8.66003L10.3504 11.2142L9.05681 13.4547C8.97343 13.5991 8.97745 13.7778 9.06655 13.9213C9.15503 14.0658 9.31532 14.1521 9.48409 14.1476L15.2879 13.984C15.4475 13.9792 15.5914 13.8943 15.6699 13.7584C15.7484 13.6224 15.7499 13.4553 15.6743 13.3147L12.9141 8.20666C12.8714 8.1286 12.8082 8.06474 12.7332 8.02144C12.6663 7.98281 12.5892 7.96074 12.5093 7.95822Z" fill="white"/>
</svg>
